<?xml version="1.0" encoding="UTF-8" standalone="no"?><!DOCTYPE svg PUBLIC "-//W3C//DTD SVG 1.1//EN" "http://www.w3.org/Graphics/SVG/1.1/DTD/svg11.dtd"><svg width="100%" height="100%" viewBox="0 0 512 512" version="1.1" xmlns="http://www.w3.org/2000/svg" xmlns:xlink="http://www.w3.org/1999/xlink" xml:space="preserve" xmlns:serif="http://www.serif.com/" style="fill-rule:evenodd;clip-rule:evenodd;stroke-linejoin:round;stroke-miterlimit:1.41421;"><path d="M230.4,110.933l-187.733,0c-23.527,0 -42.667,19.141 -42.667,42.667l0,273.067c0,23.526 19.14,42.667 42.667,42.667l110.933,0l0,-17.067l-110.933,0c-14.114,0 -25.6,-11.486 -25.6,-25.6l0,-273.067c0,-14.114 11.486,-25.6 25.6,-25.6l187.733,0c14.114,0 25.6,11.486 25.6,25.6l0,8.533l17.067,0l0,-8.533c0,-23.526 -19.141,-42.667 -42.667,-42.667Z" style="fill:#000dff;fill-rule:nonzero;"/><path d="M187.733,0l-102.4,0c-14.114,0 -25.6,11.486 -25.6,25.6c0,14.114 11.486,25.6 25.6,25.6l102.4,0c14.114,0 25.6,-11.486 25.6,-25.6c0,-14.114 -11.486,-25.6 -25.6,-25.6Zm0,34.133l-102.4,0c-4.702,0 -8.533,-3.831 -8.533,-8.533c0,-4.702 3.831,-8.533 8.533,-8.533l102.4,0c4.702,0 8.533,3.831 8.533,8.533c0.001,4.702 -3.831,8.533 -8.533,8.533Z" style="fill:#000dff;fill-rule:nonzero;"/><rect x="93.867" y="42.667" width="17.067" height="76.8" style="fill:#000dff;"/><rect x="162.133" y="42.667" width="17.067" height="76.8" style="fill:#000dff;"/><rect x="51.2" y="256" width="17.067" height="153.6" style="fill:#000dff;"/><rect x="153.6" y="162.133" width="17.067" height="68.267" style="fill:#000dff;"/><path d="M38.4,452.267c-16.469,0 -29.867,13.397 -29.867,29.867c0,16.47 13.398,29.866 29.867,29.866c16.469,0 29.867,-13.397 29.867,-29.867c0,-16.47 -13.398,-29.866 -29.867,-29.866Zm0,42.666c-7.057,0 -12.8,-5.743 -12.8,-12.8c0,-7.057 5.743,-12.8 12.8,-12.8c7.057,0 12.8,5.743 12.8,12.8c0,7.057 -5.743,12.8 -12.8,12.8Z" style="fill:#000dff;fill-rule:nonzero;"/><rect x="102.4" y="162.133" width="17.067" height="247.467" style="fill:#000dff;"/><path d="M93.261,235.759l-17.067,-42.667c-0.853,-2.133 -2.534,-3.831 -4.659,-4.71c-2.133,-0.888 -4.523,-0.879 -6.63,0.043l-59.733,25.6c-3.141,1.339 -5.172,4.428 -5.172,7.842l0,51.2c0,2.893 1.459,5.581 3.883,7.159c1.408,0.905 3.029,1.374 4.651,1.374c1.178,0 2.355,-0.239 3.473,-0.742l76.8,-34.133c4.189,-1.861 6.152,-6.699 4.454,-10.966Zm-76.194,24.175l0,-32.444l46.524,-19.934l10.769,26.914l-57.293,25.464Z" style="fill:#000dff;fill-rule:nonzero;"/><rect x="51.2" y="162.133" width="17.067" height="42.667" style="fill:#000dff;"/><rect x="204.8" y="162.133" width="17.067" height="68.267" style="fill:#000dff;"/><path d="M234.667,452.267c-16.469,0 -29.867,13.397 -29.867,29.867c0,16.47 13.397,29.866 29.867,29.866c16.469,0 29.867,-13.397 29.867,-29.867c0,-16.47 -13.398,-29.866 -29.867,-29.866Zm0,42.666c-7.057,0 -12.8,-5.743 -12.8,-12.8c0,-7.057 5.743,-12.8 12.8,-12.8c7.057,0 12.8,5.743 12.8,12.8c0,7.057 -5.743,12.8 -12.8,12.8Z" style="fill:#000dff;fill-rule:nonzero;"/><path d="M469.333,213.333l-298.666,0c-23.527,0 -42.667,19.141 -42.667,42.667l0,170.667c0,23.526 19.14,42.667 42.667,42.667l298.667,0c23.526,0 42.667,-19.14 42.667,-42.667l0,-170.667c-0.001,-23.526 -19.141,-42.667 -42.668,-42.667Zm25.6,213.334c0,14.114 -11.486,25.6 -25.6,25.6l-298.666,0c-14.114,0 -25.6,-11.486 -25.6,-25.6l0,-170.667c0,-14.114 11.486,-25.6 25.6,-25.6l298.667,0c14.114,0 25.6,11.486 25.6,25.6l0,170.667l-0.001,0Z" style="fill:#000dff;fill-rule:nonzero;"/><path d="M358.4,179.2l-76.8,0c-4.719,0 -8.533,3.823 -8.533,8.533l0,34.133l17.067,0l0,-25.6l59.733,0l0,25.6l17.067,0l0,-34.133c-0.001,-4.71 -3.815,-8.533 -8.534,-8.533Z" style="fill:#000dff;fill-rule:nonzero;"/><path d="M358.4,145.067l-76.8,0c-23.526,0 -42.667,19.14 -42.667,42.667l0,34.133l17.067,0l0,-34.133c0,-14.114 11.486,-25.6 25.6,-25.6l76.8,0c14.114,0 25.6,11.486 25.6,25.6l0,34.133l17.067,0l0,-34.133c0,-23.527 -19.141,-42.667 -42.667,-42.667Z" style="fill:#000dff;fill-rule:nonzero;"/><path d="M356.804,310.775l-42.667,-59.733c-3.2,-4.489 -10.684,-4.489 -13.884,0l-42.667,59.733c-1.86,2.603 -2.108,6.016 -0.649,8.866c1.468,2.842 4.395,4.625 7.595,4.625l85.333,0c3.2,0 6.127,-1.783 7.586,-4.625c1.461,-2.849 1.214,-6.263 -0.647,-8.866Zm-75.69,-3.575l26.086,-36.514l26.078,36.514l-52.164,0Z" style="fill:#000dff;fill-rule:nonzero;"/><path d="M440.004,335.59c-26.846,-8.747 -54.579,2.33 -61.867,24.67c-3.652,11.179 -1.749,23.296 5.359,34.133c6.716,10.24 17.391,18.15 30.046,22.289c6.238,2.031 12.518,2.995 18.586,2.995c20.028,0 37.692,-10.513 43.298,-27.665c7.296,-22.356 -8.593,-47.666 -35.422,-56.422Zm19.183,51.132c-4.369,13.414 -22.485,19.567 -40.354,13.739c-8.994,-2.944 -16.478,-8.422 -21.077,-15.428c-4.207,-6.417 -5.419,-13.329 -3.413,-19.473l0.009,0c3.251,-9.975 14.106,-15.932 26.803,-15.932c4.378,0 8.969,0.7 13.534,2.193c17.885,5.845 28.867,21.495 24.498,34.901Z" style="fill:#000dff;fill-rule:nonzero;"/><path d="M166.4,452.267c-16.469,0 -29.867,13.397 -29.867,29.867c0,16.47 13.398,29.866 29.867,29.866c16.469,0 29.867,-13.397 29.867,-29.867c0,-16.47 -13.398,-29.866 -29.867,-29.866Zm0,42.666c-7.057,0 -12.8,-5.743 -12.8,-12.8c0,-7.057 5.743,-12.8 12.8,-12.8c7.057,0 12.8,5.743 12.8,12.8c0,7.057 -5.743,12.8 -12.8,12.8Z" style="fill:#000dff;fill-rule:nonzero;"/><path d="M473.6,452.267c-16.469,0 -29.867,13.397 -29.867,29.867c0,16.47 13.398,29.866 29.867,29.866c16.469,0 29.867,-13.397 29.867,-29.867c0,-16.47 -13.398,-29.866 -29.867,-29.866Zm0,42.666c-7.057,0 -12.8,-5.743 -12.8,-12.8c0,-7.057 5.743,-12.8 12.8,-12.8c7.057,0 12.8,5.743 12.8,12.8c0,7.057 -5.743,12.8 -12.8,12.8Z" style="fill:#000dff;fill-rule:nonzero;"/><rect x="204.8" y="392.533" width="17.067" height="68.267" style="fill:#000dff;"/><path d="M213.333,213.333l-34.133,0c-4.71,0 -8.533,3.823 -8.533,8.533l0,102.4l17.067,0l0,-93.866l17.066,0l0,110.933l17.067,0l0,-119.466c0,-4.711 -3.823,-8.534 -8.534,-8.534Z" style="fill:#000dff;fill-rule:nonzero;"/><rect x="170.667" y="366.933" width="17.067" height="93.867" style="fill:#000dff;"/><rect x="452.267" y="401.067" width="17.067" height="59.733" style="fill:#000dff;"/><path d="M460.8,213.333l-34.133,0c-4.719,0 -8.533,3.823 -8.533,8.533l0,119.467l17.066,0l0,-110.933l17.067,0l0,128l17.067,0l0,-136.533c-0.001,-4.711 -3.815,-8.534 -8.534,-8.534Z" style="fill:#000dff;fill-rule:nonzero;"/><rect x="418.133" y="409.6" width="17.067" height="51.2" style="fill:#000dff;"/><path d="M243.234,351.019l-102.4,-59.733l-8.602,14.754l95.488,55.697l-9.37,18.731l-77.431,-46.456l-8.781,14.635l85.333,51.2c1.348,0.802 2.859,1.22 4.395,1.22c0.802,0 1.604,-0.111 2.389,-0.341c2.278,-0.666 4.181,-2.253 5.248,-4.378l17.067,-34.133c2.006,-4.028 0.555,-8.918 -3.336,-11.196Z" style="fill:#000dff;fill-rule:nonzero;"/></svg>