<?xml version="1.0" encoding="UTF-8" standalone="no"?><!DOCTYPE svg PUBLIC "-//W3C//DTD SVG 1.1//EN" "http://www.w3.org/Graphics/SVG/1.1/DTD/svg11.dtd"><svg width="100%" height="100%" viewBox="0 0 512 512" version="1.1" xmlns="http://www.w3.org/2000/svg" xmlns:xlink="http://www.w3.org/1999/xlink" xml:space="preserve" xmlns:serif="http://www.serif.com/" style="fill-rule:evenodd;clip-rule:evenodd;stroke-linejoin:round;stroke-miterlimit:1.41421;"><path d="M432.475,84.042l-58.219,0c-0.5,-7.833 -6.993,-14.036 -14.951,-14.036l-0.773,0l0,-32.167c-0.001,-20.864 -17.15,-37.839 -38.229,-37.839l-128.606,0c-21.079,0 -38.229,16.975 -38.229,37.839l0,32.167l-0.773,0c-7.958,0 -14.452,6.203 -14.951,14.036l-58.219,0c-43.422,0 -78.748,35.326 -78.748,78.748l0,284.886c0,35.469 28.856,64.324 64.324,64.324l381.799,0c35.468,0 64.323,-28.855 64.323,-64.324l0,-284.886c0,-43.422 -35.327,-78.748 -78.748,-78.748Zm-167.133,30c13.386,2.672 25.03,10.258 32.874,21.483c8.065,11.543 11.154,25.537 8.695,39.402c-0.97,5.47 -2.761,10.654 -5.316,15.477l-42.149,4.837c-4.309,0.495 -8.191,2.829 -10.649,6.402l-61.742,89.772c-2.254,3.277 -3.114,7.316 -2.391,11.229c0.723,3.913 2.972,7.376 6.25,9.631l61.576,42.35c2.597,1.786 5.557,2.642 8.486,2.642c4.772,0 9.464,-2.271 12.373,-6.501l61.742,-89.771c2.457,-3.573 3.248,-8.035 2.168,-12.234l-10.678,-41.54c4.848,-8.351 8.162,-17.432 9.869,-27.054c3.858,-21.756 -0.987,-43.712 -13.644,-61.824c-1.033,-1.479 -2.124,-2.902 -3.239,-4.299l54.165,0l0,367.956l-235.464,0l0,-367.958l127.074,0Zm41.164,135.575l-49.375,71.789l-36.857,-25.35l49.374,-71.789l29.472,-3.382l7.386,28.732Zm-123.037,-211.778c0,-4.469 3.537,-7.839 8.229,-7.839l128.605,0c4.691,0 8.229,3.37 8.229,7.839l0,32.167l-0.774,0c-7.958,0 -14.452,6.203 -14.951,14.036l-113.613,0c-0.499,-7.833 -6.993,-14.036 -14.951,-14.036l-0.774,0l0,-32.167Zm-152.692,409.837l0,-284.886c0,-26.88 21.868,-48.748 48.748,-48.748l28.742,0l0,367.958l-43.166,0c-18.926,0 -34.324,-15.397 -34.324,-34.324Zm450.446,0c0,18.927 -15.397,34.324 -34.323,34.324l-43.167,0l0,-367.958l28.742,0c26.88,0 48.748,21.868 48.748,48.748l0,284.886Z" style="fill:#000dff;fill-rule:nonzero;"/></svg>