<?xml version="1.0" encoding="UTF-8" standalone="no"?><!DOCTYPE svg PUBLIC "-//W3C//DTD SVG 1.1//EN" "http://www.w3.org/Graphics/SVG/1.1/DTD/svg11.dtd"><svg width="100%" height="100%" viewBox="0 0 480 480" version="1.1" xmlns="http://www.w3.org/2000/svg" xmlns:xlink="http://www.w3.org/1999/xlink" xml:space="preserve" xmlns:serif="http://www.serif.com/" style="fill-rule:evenodd;clip-rule:evenodd;stroke-linejoin:round;stroke-miterlimit:1.41421;"><path d="M336,128l-48,0l0,-88l16,0c4.418,0 8,-3.582 8,-8l0,-24c0,-4.418 -3.582,-8 -8,-8l-128,0c-4.418,0 -8,3.582 -8,8l0,24c0,4.418 3.582,8 8,8l16,0l0,88l-48,0c-22.082,0.027 -39.973,17.918 -40,40l0,248c0.027,22.082 17.918,39.973 40,40l0,16c0,4.418 3.582,8 8,8l32,0c4.418,0 8,-3.582 8,-8l0,-16l96,0l0,16c0,4.418 3.582,8 8,8l32,0c4.418,0 8,-3.582 8,-8l0,-16c22.082,-0.027 39.973,-17.918 40,-40l0,-248c-0.027,-22.082 -17.918,-39.973 -40,-40Zm-152,-112l112,0l0,8l-112,0l0,-8Zm24,24l64,0l0,88l-64,0l0,-88Zm-32,424l-16,0l0,-8l16,0l0,8Zm144,0l-16,0l0,-8l16,0l0,8Zm40,-48c0,13.254 -10.746,24 -24,24l-192,0c-13.254,0 -24,-10.746 -24,-24l0,-248c0,-13.254 10.746,-24 24,-24l192,0c13.254,0 24,10.746 24,24l0,248Z" style="fill:#000bff;fill-rule:nonzero;"/><path d="M240,160c-4.418,0 -8,3.582 -8,8l0,248c0,4.418 3.582,8 8,8c4.418,0 8,-3.582 8,-8l0,-248c0,-4.418 -3.582,-8 -8,-8Z" style="fill:#000bff;fill-rule:nonzero;"/><path d="M304,176c-4.418,0 -8,3.582 -8,8l0,216c0,4.418 3.582,8 8,8c4.418,0 8,-3.582 8,-8l0,-216c0,-4.418 -3.582,-8 -8,-8Z" style="fill:#000bff;fill-rule:nonzero;"/><path d="M176,176c-4.418,0 -8,3.582 -8,8l0,216c0,4.418 3.582,8 8,8c4.418,0 8,-3.582 8,-8l0,-216c0,-4.418 -3.582,-8 -8,-8Z" style="fill:#000bff;fill-rule:nonzero;"/></svg>