<?xml version="1.0" encoding="UTF-8" standalone="no"?><!DOCTYPE svg PUBLIC "-//W3C//DTD SVG 1.1//EN" "http://www.w3.org/Graphics/SVG/1.1/DTD/svg11.dtd"><svg width="100%" height="100%" viewBox="0 0 300 1287" version="1.1" xmlns="http://www.w3.org/2000/svg" xmlns:xlink="http://www.w3.org/1999/xlink" xml:space="preserve" xmlns:serif="http://www.serif.com/" style="fill-rule:evenodd;clip-rule:evenodd;stroke-linejoin:round;stroke-miterlimit:1.41421"><rect id="A1" x="68.865" y="314.11" width="30.156" height="31.86" style="fill:#00ff14;fill-opacity:0.34902"/><rect id="C1" x="100.865" y="314.11" width="30.156" height="31.86" style="fill:#00ff14;fill-opacity:0.34902"/><rect id="A2" x="68.865" y="362.11" width="30.156" height="31.86" style="fill:#00ff14;fill-opacity:0.34902"/><rect id="C2" x="100.865" y="362.11" width="30.156" height="31.86" style="fill:#00ff14;fill-opacity:0.34902"/><rect id="A3" x="68.865" y="411.11" width="30.156" height="31.86" style="fill:#00ff14;fill-opacity:0.34902"/><rect id="C3" x="100.865" y="411.11" width="30.156" height="31.86" style="fill:#00ff14;fill-opacity:0.34902"/><rect id="A4" x="68.865" y="459.11" width="30.156" height="31.86" style="fill:#00ff14;fill-opacity:0.34902"/><rect id="C4" x="100.865" y="459.11" width="30.156" height="31.86" style="fill:#00ff14;fill-opacity:0.34902"/><rect id="A5" x="68.865" y="508.11" width="30.156" height="31.86" style="fill:#00ff14;fill-opacity:0.34902"/><rect id="C5" x="100.865" y="508.11" width="30.156" height="31.86" style="fill:#00ff14;fill-opacity:0.34902"/><rect id="A6" x="68.865" y="557.11" width="30.156" height="31.86" style="fill:#00ff14;fill-opacity:0.34902"/><rect id="C6" x="100.865" y="557.11" width="30.156" height="31.86" style="fill:#00ff14;fill-opacity:0.34902"/><rect id="A7" x="68.865" y="605.11" width="30.156" height="31.86" style="fill:#00ff14;fill-opacity:0.34902"/><rect id="C7" x="100.865" y="605.11" width="30.156" height="31.86" style="fill:#00ff14;fill-opacity:0.34902"/><rect id="A8" x="68.865" y="688.11" width="30.156" height="31.86" style="fill:#00ff14;fill-opacity:0.34902"/><rect id="C8" x="100.865" y="688.11" width="30.156" height="31.86" style="fill:#00ff14;fill-opacity:0.34902"/><rect id="A9" x="68.865" y="736.11" width="30.156" height="31.86" style="fill:#00ff14;fill-opacity:0.34902"/><rect id="C9" x="100.865" y="736.11" width="30.156" height="31.86" style="fill:#00ff14;fill-opacity:0.34902"/><rect id="A10" x="68.865" y="785.11" width="30.156" height="31.86" style="fill:#00ff14;fill-opacity:0.34902"/><rect id="C10" x="100.865" y="785.11" width="30.156" height="31.86" style="fill:#00ff14;fill-opacity:0.34902"/><rect id="A11" x="68.865" y="833.11" width="30.156" height="31.86" style="fill:#00ff14;fill-opacity:0.34902"/><rect id="C11" x="100.865" y="833.11" width="30.156" height="31.86" style="fill:#00ff14;fill-opacity:0.34902"/><rect id="A12" x="68.865" y="882.11" width="30.156" height="31.86" style="fill:#00ff14;fill-opacity:0.34902"/><rect id="C12" x="100.865" y="882.11" width="30.156" height="31.86" style="fill:#00ff14;fill-opacity:0.34902"/><rect id="A13" x="68.865" y="931.11" width="30.156" height="31.86" style="fill:#00ff14;fill-opacity:0.34902"/><rect id="C13" x="100.865" y="931.11" width="30.156" height="31.86" style="fill:#00ff14;fill-opacity:0.34902"/><rect id="H1" x="169.865" y="314.11" width="30.156" height="31.86" style="fill:#00ff14;fill-opacity:0.34902"/><rect id="K1" x="201.865" y="314.11" width="30.156" height="31.86" style="fill:#00ff14;fill-opacity:0.34902"/><rect id="H2" x="169.865" y="362.11" width="30.156" height="31.86" style="fill:#00ff14;fill-opacity:0.34902"/><rect id="K2" x="201.865" y="362.11" width="30.156" height="31.86" style="fill:#00ff14;fill-opacity:0.34902"/><rect id="H3" x="169.865" y="411.11" width="30.156" height="31.86" style="fill:#00ff14;fill-opacity:0.34902"/><rect id="K3" x="201.865" y="411.11" width="30.156" height="31.86" style="fill:#00ff14;fill-opacity:0.34902"/><rect id="H4" x="169.865" y="459.11" width="30.156" height="31.86" style="fill:#00ff14;fill-opacity:0.34902"/><rect id="K4" x="201.865" y="459.11" width="30.156" height="31.86" style="fill:#00ff14;fill-opacity:0.34902"/><rect id="H5" x="169.865" y="508.11" width="30.156" height="31.86" style="fill:#00ff14;fill-opacity:0.34902"/><rect id="K5" x="201.865" y="508.11" width="30.156" height="31.86" style="fill:#00ff14;fill-opacity:0.34902"/><rect id="H6" x="169.865" y="557.11" width="30.156" height="31.86" style="fill:#00ff14;fill-opacity:0.34902"/><rect id="K6" x="201.865" y="557.11" width="30.156" height="31.86" style="fill:#00ff14;fill-opacity:0.34902"/><rect id="H7" x="169.865" y="605.11" width="30.156" height="31.86" style="fill:#00ff14;fill-opacity:0.34902"/><rect id="K7" x="201.865" y="605.11" width="30.156" height="31.86" style="fill:#00ff14;fill-opacity:0.34902"/><rect id="H8" x="169.865" y="688.11" width="30.156" height="31.86" style="fill:#00ff14;fill-opacity:0.34902"/><rect id="K8" x="201.865" y="688.11" width="30.156" height="31.86" style="fill:#00ff14;fill-opacity:0.34902"/><rect id="H9" x="169.865" y="736.11" width="30.156" height="31.86" style="fill:#00ff14;fill-opacity:0.34902"/><rect id="K9" x="201.865" y="736.11" width="30.156" height="31.86" style="fill:#00ff14;fill-opacity:0.34902"/><rect id="H10" x="169.865" y="785.11" width="30.156" height="31.86" style="fill:#00ff14;fill-opacity:0.34902"/><rect id="K10" x="201.865" y="785.11" width="30.156" height="31.86" style="fill:#00ff14;fill-opacity:0.34902"/><rect id="H11" x="169.865" y="833.11" width="30.156" height="31.86" style="fill:#00ff14;fill-opacity:0.34902"/><rect id="K11" x="201.865" y="833.11" width="30.156" height="31.86" style="fill:#00ff14;fill-opacity:0.34902"/><rect id="H12" x="169.865" y="882.11" width="30.156" height="31.86" style="fill:#00ff14;fill-opacity:0.34902"/><rect id="K12" x="201.865" y="882.11" width="30.156" height="31.86" style="fill:#00ff14;fill-opacity:0.34902"/></svg>