<?xml version="1.0" encoding="UTF-8" standalone="no"?><!DOCTYPE svg PUBLIC "-//W3C//DTD SVG 1.1//EN" "http://www.w3.org/Graphics/SVG/1.1/DTD/svg11.dtd"><svg width="100%" height="100%" viewBox="0 0 306 1182" version="1.1" xmlns="http://www.w3.org/2000/svg" xmlns:xlink="http://www.w3.org/1999/xlink" xml:space="preserve" xmlns:serif="http://www.serif.com/" style="fill-rule:evenodd;clip-rule:evenodd;stroke-linejoin:round;stroke-miterlimit:1.41421;"><rect id="A1" x="97.254" y="213.16" width="13.237" height="15.055" style="fill:#00ff28;fill-opacity:0.176471;"/><rect id="B1" x="111.654" y="213.16" width="13.626" height="15.055" style="fill:#00ff28;fill-opacity:0.176471;"/><rect id="C1" x="126.774" y="213.16" width="13.626" height="15.055" style="fill:#00ff28;fill-opacity:0.176471;"/><rect id="A2" x="97.254" y="234.76" width="13.237" height="15.055" style="fill:#00ff28;fill-opacity:0.176471;"/><rect id="B2" x="111.654" y="234.76" width="13.626" height="15.055" style="fill:#00ff28;fill-opacity:0.176471;"/><rect id="C2" x="126.774" y="234.76" width="13.626" height="15.055" style="fill:#00ff28;fill-opacity:0.176471;"/><rect id="A3" x="97.254" y="256.36" width="13.237" height="15.055" style="fill:#00ff28;fill-opacity:0.176471;"/><rect id="B3" x="111.654" y="256.36" width="13.626" height="15.055" style="fill:#00ff28;fill-opacity:0.176471;"/><rect id="C3" x="126.774" y="256.36" width="13.626" height="15.055" style="fill:#00ff28;fill-opacity:0.176471;"/><rect id="A4" x="97.254" y="277.96" width="13.237" height="15.055" style="fill:#00ff28;fill-opacity:0.176471;"/><rect id="B4" x="111.654" y="277.96" width="13.626" height="15.055" style="fill:#00ff28;fill-opacity:0.176471;"/><rect id="C4" x="126.774" y="277.96" width="13.626" height="15.055" style="fill:#00ff28;fill-opacity:0.176471;"/><rect id="A5" x="97.254" y="299.56" width="13.237" height="15.055" style="fill:#00ff28;fill-opacity:0.176471;"/><rect id="B5" x="111.654" y="299.56" width="13.626" height="15.055" style="fill:#00ff28;fill-opacity:0.176471;"/><rect id="C5" x="126.774" y="299.56" width="13.626" height="15.055" style="fill:#00ff28;fill-opacity:0.176471;"/><rect id="A6" x="97.254" y="321.16" width="13.237" height="15.055" style="fill:#00ff28;fill-opacity:0.176471;"/><rect id="B6" x="111.654" y="321.16" width="13.626" height="15.055" style="fill:#00ff28;fill-opacity:0.176471;"/><rect id="C6" x="126.774" y="321.16" width="13.626" height="15.055" style="fill:#00ff28;fill-opacity:0.176471;"/><rect id="A7" x="97.254" y="342.76" width="13.237" height="15.055" style="fill:#00ff28;fill-opacity:0.176471;"/><rect id="B7" x="111.654" y="342.76" width="13.626" height="15.055" style="fill:#00ff28;fill-opacity:0.176471;"/><rect id="C7" x="126.774" y="342.76" width="13.626" height="15.055" style="fill:#00ff28;fill-opacity:0.176471;"/><rect id="A8" x="97.254" y="364.36" width="13.237" height="15.055" style="fill:#00ff28;fill-opacity:0.176471;"/><rect id="B8" x="111.654" y="364.36" width="13.626" height="15.055" style="fill:#00ff28;fill-opacity:0.176471;"/><rect id="C8" x="126.774" y="364.36" width="13.626" height="15.055" style="fill:#00ff28;fill-opacity:0.176471;"/><rect id="A9" x="97.254" y="385.96" width="13.237" height="15.055" style="fill:#00ff28;fill-opacity:0.176471;"/><rect id="B9" x="111.654" y="385.96" width="13.626" height="15.055" style="fill:#00ff28;fill-opacity:0.176471;"/><rect id="C9" x="126.774" y="385.96" width="13.626" height="15.055" style="fill:#00ff28;fill-opacity:0.176471;"/><rect id="A10" x="97.254" y="407.56" width="13.237" height="15.055" style="fill:#00ff28;fill-opacity:0.176471;"/><rect id="B10" x="111.654" y="407.56" width="13.626" height="15.055" style="fill:#00ff28;fill-opacity:0.176471;"/><rect id="C10" x="126.774" y="407.56" width="13.626" height="15.055" style="fill:#00ff28;fill-opacity:0.176471;"/><rect id="A11" x="97.254" y="429.16" width="13.237" height="15.055" style="fill:#00ff28;fill-opacity:0.176471;"/><rect id="B11" x="111.654" y="429.16" width="13.626" height="15.055" style="fill:#00ff28;fill-opacity:0.176471;"/><rect id="C11" x="126.774" y="429.16" width="13.626" height="15.055" style="fill:#00ff28;fill-opacity:0.176471;"/><rect id="A12" x="97.254" y="457.96" width="13.237" height="15.055" style="fill:#00ff28;fill-opacity:0.176471;"/><rect id="B12" x="111.654" y="457.96" width="13.626" height="15.055" style="fill:#00ff28;fill-opacity:0.176471;"/><rect id="C12" x="126.774" y="457.96" width="13.626" height="15.055" style="fill:#00ff28;fill-opacity:0.176471;"/><rect id="A13" x="97.254" y="486.76" width="13.237" height="15.055" style="fill:#00ff28;fill-opacity:0.176471;"/><rect id="B13" x="111.654" y="486.76" width="13.626" height="15.055" style="fill:#00ff28;fill-opacity:0.176471;"/><rect id="C13" x="126.774" y="486.76" width="13.626" height="15.055" style="fill:#00ff28;fill-opacity:0.176471;"/><rect id="A14" x="97.254" y="508.36" width="13.237" height="15.055" style="fill:#00ff28;fill-opacity:0.176471;"/><rect id="B14" x="111.654" y="508.36" width="13.626" height="15.055" style="fill:#00ff28;fill-opacity:0.176471;"/><rect id="C14" x="126.774" y="508.36" width="13.626" height="15.055" style="fill:#00ff28;fill-opacity:0.176471;"/><rect id="A15" x="97.254" y="529.96" width="13.237" height="15.055" style="fill:#00ff28;fill-opacity:0.176471;"/><rect id="B15" x="111.654" y="529.96" width="13.626" height="15.055" style="fill:#00ff28;fill-opacity:0.176471;"/><rect id="C15" x="126.774" y="529.96" width="13.626" height="15.055" style="fill:#00ff28;fill-opacity:0.176471;"/><rect id="A16" x="97.254" y="550.12" width="13.237" height="15.055" style="fill:#00ff28;fill-opacity:0.176471;"/><rect id="B16" x="111.654" y="551.56" width="13.626" height="15.055" style="fill:#00ff28;fill-opacity:0.176471;"/><rect id="C16" x="126.774" y="551.56" width="13.626" height="15.055" style="fill:#00ff28;fill-opacity:0.176471;"/><rect id="A17" x="97.254" y="573.16" width="13.237" height="15.055" style="fill:#00ff28;fill-opacity:0.176471;"/><rect id="B17" x="111.654" y="573.16" width="13.626" height="15.055" style="fill:#00ff28;fill-opacity:0.176471;"/><rect id="C17" x="126.774" y="573.16" width="13.626" height="15.055" style="fill:#00ff28;fill-opacity:0.176471;"/><rect id="A18" x="97.254" y="594.76" width="13.237" height="15.055" style="fill:#00ff28;fill-opacity:0.176471;"/><rect id="B18" x="111.654" y="594.76" width="13.626" height="15.055" style="fill:#00ff28;fill-opacity:0.176471;"/><rect id="C18" x="126.774" y="594.76" width="13.626" height="15.055" style="fill:#00ff28;fill-opacity:0.176471;"/><rect id="A19" x="97.254" y="616.36" width="13.237" height="15.055" style="fill:#00ff28;fill-opacity:0.176471;"/><rect id="B19" x="111.654" y="616.36" width="13.626" height="15.055" style="fill:#00ff28;fill-opacity:0.176471;"/><rect id="C19" x="126.774" y="616.36" width="13.626" height="15.055" style="fill:#00ff28;fill-opacity:0.176471;"/><rect id="A20" x="97.254" y="637.96" width="13.237" height="15.055" style="fill:#00ff28;fill-opacity:0.176471;"/><rect id="B20" x="111.654" y="637.96" width="13.626" height="15.055" style="fill:#00ff28;fill-opacity:0.176471;"/><rect id="C20" x="126.774" y="637.96" width="13.626" height="15.055" style="fill:#00ff28;fill-opacity:0.176471;"/><rect id="A21" x="97.254" y="659.56" width="13.237" height="15.055" style="fill:#00ff28;fill-opacity:0.176471;"/><rect id="B21" x="111.654" y="659.56" width="13.626" height="15.055" style="fill:#00ff28;fill-opacity:0.176471;"/><rect id="C21" x="126.774" y="659.56" width="13.626" height="15.055" style="fill:#00ff28;fill-opacity:0.176471;"/><rect id="A22" x="97.254" y="681.16" width="13.237" height="15.055" style="fill:#00ff28;fill-opacity:0.176471;"/><rect id="B22" x="111.654" y="681.16" width="13.626" height="15.055" style="fill:#00ff28;fill-opacity:0.176471;"/><rect id="C22" x="126.774" y="681.16" width="13.626" height="15.055" style="fill:#00ff28;fill-opacity:0.176471;"/><rect id="A23" x="97.254" y="702.76" width="13.237" height="15.055" style="fill:#00ff28;fill-opacity:0.176471;"/><rect id="B23" x="111.654" y="702.76" width="13.626" height="15.055" style="fill:#00ff28;fill-opacity:0.176471;"/><rect id="C23" x="126.774" y="702.76" width="13.626" height="15.055" style="fill:#00ff28;fill-opacity:0.176471;"/><rect id="A24" x="97.254" y="724.36" width="13.237" height="15.055" style="fill:#00ff28;fill-opacity:0.176471;"/><rect id="B24" x="111.654" y="724.36" width="13.626" height="15.055" style="fill:#00ff28;fill-opacity:0.176471;"/><rect id="C24" x="126.774" y="724.36" width="13.626" height="15.055" style="fill:#00ff28;fill-opacity:0.176471;"/><rect id="A25" x="97.254" y="745.96" width="13.237" height="15.055" style="fill:#00ff28;fill-opacity:0.176471;"/><rect id="B25" x="111.654" y="745.96" width="13.626" height="15.055" style="fill:#00ff28;fill-opacity:0.176471;"/><rect id="C25" x="126.774" y="745.96" width="13.626" height="15.055" style="fill:#00ff28;fill-opacity:0.176471;"/><rect id="A26" x="97.254" y="767.56" width="13.237" height="15.055" style="fill:#00ff28;fill-opacity:0.176471;"/><rect id="B26" x="111.654" y="767.56" width="13.626" height="15.055" style="fill:#00ff28;fill-opacity:0.176471;"/><rect id="C26" x="126.774" y="767.56" width="13.626" height="15.055" style="fill:#00ff28;fill-opacity:0.176471;"/><rect id="A27" x="97.254" y="789.16" width="13.237" height="15.055" style="fill:#00ff28;fill-opacity:0.176471;"/><rect id="B27" x="111.654" y="789.16" width="13.626" height="15.055" style="fill:#00ff28;fill-opacity:0.176471;"/><rect id="C27" x="126.774" y="789.16" width="13.626" height="15.055" style="fill:#00ff28;fill-opacity:0.176471;"/><rect id="A28" x="97.254" y="810.76" width="13.237" height="15.055" style="fill:#00ff28;fill-opacity:0.176471;"/><rect id="B28" x="111.654" y="810.76" width="13.626" height="15.055" style="fill:#00ff28;fill-opacity:0.176471;"/><rect id="C28" x="126.774" y="810.76" width="13.626" height="15.055" style="fill:#00ff28;fill-opacity:0.176471;"/><rect id="A29" x="97.254" y="832.36" width="13.237" height="15.055" style="fill:#00ff28;fill-opacity:0.176471;"/><rect id="B29" x="111.654" y="832.36" width="13.626" height="15.055" style="fill:#00ff28;fill-opacity:0.176471;"/><rect id="C29" x="126.774" y="832.36" width="13.626" height="15.055" style="fill:#00ff28;fill-opacity:0.176471;"/><rect id="A30" x="97.254" y="853.96" width="13.237" height="15.055" style="fill:#00ff28;fill-opacity:0.176471;"/><rect id="B30" x="111.654" y="853.96" width="13.626" height="15.055" style="fill:#00ff28;fill-opacity:0.176471;"/><rect id="C30" x="126.774" y="853.96" width="13.626" height="15.055" style="fill:#00ff28;fill-opacity:0.176471;"/><rect id="D1" x="163.494" y="212.44" width="13.237" height="15.055" style="fill:#00ff28;fill-opacity:0.176471;"/><rect id="E1" x="177.894" y="212.44" width="13.626" height="15.055" style="fill:#00ff28;fill-opacity:0.176471;"/><rect id="F1" x="193.014" y="212.44" width="13.626" height="15.055" style="fill:#00ff28;fill-opacity:0.176471;"/><rect id="D2" x="163.494" y="234.04" width="13.237" height="15.055" style="fill:#00ff28;fill-opacity:0.176471;"/><rect id="E2" x="177.894" y="234.04" width="13.626" height="15.055" style="fill:#00ff28;fill-opacity:0.176471;"/><rect id="F2" x="193.014" y="234.04" width="13.626" height="15.055" style="fill:#00ff28;fill-opacity:0.176471;"/><rect id="D3" x="163.494" y="255.64" width="13.237" height="15.055" style="fill:#00ff28;fill-opacity:0.176471;"/><rect id="E3" x="177.894" y="255.64" width="13.626" height="15.055" style="fill:#00ff28;fill-opacity:0.176471;"/><rect id="F3" x="193.014" y="255.64" width="13.626" height="15.055" style="fill:#00ff28;fill-opacity:0.176471;"/><rect id="D4" x="163.494" y="277.24" width="13.237" height="15.055" style="fill:#00ff28;fill-opacity:0.176471;"/><rect id="E4" x="177.894" y="277.24" width="13.626" height="15.055" style="fill:#00ff28;fill-opacity:0.176471;"/><rect id="F4" x="193.014" y="277.24" width="13.626" height="15.055" style="fill:#00ff28;fill-opacity:0.176471;"/><rect id="D5" x="163.494" y="298.84" width="13.237" height="15.055" style="fill:#00ff28;fill-opacity:0.176471;"/><rect id="E5" x="177.894" y="298.84" width="13.626" height="15.055" style="fill:#00ff28;fill-opacity:0.176471;"/><rect id="F5" x="193.014" y="298.84" width="13.626" height="15.055" style="fill:#00ff28;fill-opacity:0.176471;"/><rect id="D6" x="163.494" y="320.44" width="13.237" height="15.055" style="fill:#00ff28;fill-opacity:0.176471;"/><rect id="E6" x="177.894" y="320.44" width="13.626" height="15.055" style="fill:#00ff28;fill-opacity:0.176471;"/><rect id="F6" x="193.014" y="320.44" width="13.626" height="15.055" style="fill:#00ff28;fill-opacity:0.176471;"/><rect id="D7" x="163.494" y="342.04" width="13.237" height="15.055" style="fill:#00ff28;fill-opacity:0.176471;"/><rect id="E7" x="177.894" y="342.04" width="13.626" height="15.055" style="fill:#00ff28;fill-opacity:0.176471;"/><rect id="F7" x="193.014" y="342.04" width="13.626" height="15.055" style="fill:#00ff28;fill-opacity:0.176471;"/><rect id="D8" x="163.494" y="363.64" width="13.237" height="15.055" style="fill:#00ff28;fill-opacity:0.176471;"/><rect id="E8" x="177.894" y="363.64" width="13.626" height="15.055" style="fill:#00ff28;fill-opacity:0.176471;"/><rect id="F8" x="193.014" y="363.64" width="13.626" height="15.055" style="fill:#00ff28;fill-opacity:0.176471;"/><rect id="D9" x="163.494" y="385.24" width="13.237" height="15.055" style="fill:#00ff28;fill-opacity:0.176471;"/><rect id="E9" x="177.894" y="385.24" width="13.626" height="15.055" style="fill:#00ff28;fill-opacity:0.176471;"/><rect id="F9" x="193.014" y="385.24" width="13.626" height="15.055" style="fill:#00ff28;fill-opacity:0.176471;"/><rect id="D10" x="163.494" y="406.84" width="13.237" height="15.055" style="fill:#00ff28;fill-opacity:0.176471;"/><rect id="E10" x="177.894" y="406.84" width="13.626" height="15.055" style="fill:#00ff28;fill-opacity:0.176471;"/><rect id="F10" x="193.014" y="406.84" width="13.626" height="15.055" style="fill:#00ff28;fill-opacity:0.176471;"/><rect id="D11" x="163.494" y="428.44" width="13.237" height="15.055" style="fill:#00ff28;fill-opacity:0.176471;"/><rect id="E11" x="177.894" y="428.44" width="13.626" height="15.055" style="fill:#00ff28;fill-opacity:0.176471;"/><rect id="F11" x="193.014" y="428.44" width="13.626" height="15.055" style="fill:#00ff28;fill-opacity:0.176471;"/><rect id="D12" x="163.494" y="457.24" width="13.237" height="15.055" style="fill:#00ff28;fill-opacity:0.176471;"/><rect id="E12" x="177.894" y="457.24" width="13.626" height="15.055" style="fill:#00ff28;fill-opacity:0.176471;"/><rect id="F12" x="193.014" y="457.24" width="13.626" height="15.055" style="fill:#00ff28;fill-opacity:0.176471;"/><rect id="D13" x="163.494" y="486.04" width="13.237" height="15.055" style="fill:#00ff28;fill-opacity:0.176471;"/><rect id="E13" x="177.894" y="486.04" width="13.626" height="15.055" style="fill:#00ff28;fill-opacity:0.176471;"/><rect id="F13" x="193.014" y="486.04" width="13.626" height="15.055" style="fill:#00ff28;fill-opacity:0.176471;"/><rect id="D14" x="163.494" y="507.64" width="13.237" height="15.055" style="fill:#00ff28;fill-opacity:0.176471;"/><rect id="E14" x="177.894" y="507.64" width="13.626" height="15.055" style="fill:#00ff28;fill-opacity:0.176471;"/><rect id="F14" x="193.014" y="507.64" width="13.626" height="15.055" style="fill:#00ff28;fill-opacity:0.176471;"/><rect id="D15" x="163.494" y="529.24" width="13.237" height="15.055" style="fill:#00ff28;fill-opacity:0.176471;"/><rect id="E15" x="177.894" y="529.24" width="13.626" height="15.055" style="fill:#00ff28;fill-opacity:0.176471;"/><rect id="F15" x="193.014" y="529.24" width="13.626" height="15.055" style="fill:#00ff28;fill-opacity:0.176471;"/><rect id="D16" x="163.494" y="550.84" width="13.237" height="15.055" style="fill:#00ff28;fill-opacity:0.176471;"/><rect id="E16" x="177.894" y="550.84" width="13.626" height="15.055" style="fill:#00ff28;fill-opacity:0.176471;"/><rect id="F16" x="193.014" y="550.84" width="13.626" height="15.055" style="fill:#00ff28;fill-opacity:0.176471;"/><rect id="D17" x="163.494" y="572.44" width="13.237" height="15.055" style="fill:#00ff28;fill-opacity:0.176471;"/><rect id="E17" x="177.894" y="572.44" width="13.626" height="15.055" style="fill:#00ff28;fill-opacity:0.176471;"/><rect id="F17" x="193.014" y="572.44" width="13.626" height="15.055" style="fill:#00ff28;fill-opacity:0.176471;"/><rect id="D18" x="163.494" y="594.04" width="13.237" height="15.055" style="fill:#00ff28;fill-opacity:0.176471;"/><rect id="E18" x="177.894" y="594.04" width="13.626" height="15.055" style="fill:#00ff28;fill-opacity:0.176471;"/><rect id="F18" x="193.014" y="594.04" width="13.626" height="15.055" style="fill:#00ff28;fill-opacity:0.176471;"/><rect id="D19" x="163.494" y="615.64" width="13.237" height="15.055" style="fill:#00ff28;fill-opacity:0.176471;"/><rect id="E19" x="177.894" y="615.64" width="13.626" height="15.055" style="fill:#00ff28;fill-opacity:0.176471;"/><rect id="F19" x="193.014" y="615.64" width="13.626" height="15.055" style="fill:#00ff28;fill-opacity:0.176471;"/><rect id="D20" x="163.494" y="637.24" width="13.237" height="15.055" style="fill:#00ff28;fill-opacity:0.176471;"/><rect id="E20" x="177.894" y="637.24" width="13.626" height="15.055" style="fill:#00ff28;fill-opacity:0.176471;"/><rect id="F20" x="193.014" y="637.24" width="13.626" height="15.055" style="fill:#00ff28;fill-opacity:0.176471;"/><rect id="D21" x="163.494" y="658.84" width="13.237" height="15.055" style="fill:#00ff28;fill-opacity:0.176471;"/><rect id="E21" x="177.894" y="658.84" width="13.626" height="15.055" style="fill:#00ff28;fill-opacity:0.176471;"/><rect id="F21" x="193.014" y="658.84" width="13.626" height="15.055" style="fill:#00ff28;fill-opacity:0.176471;"/><rect id="D22" x="163.494" y="680.44" width="13.237" height="15.055" style="fill:#00ff28;fill-opacity:0.176471;"/><rect id="E22" x="177.894" y="680.44" width="13.626" height="15.055" style="fill:#00ff28;fill-opacity:0.176471;"/><rect id="F22" x="193.014" y="680.44" width="13.626" height="15.055" style="fill:#00ff28;fill-opacity:0.176471;"/><rect id="D23" x="163.494" y="702.04" width="13.237" height="15.055" style="fill:#00ff28;fill-opacity:0.176471;"/><rect id="E23" x="177.894" y="702.04" width="13.626" height="15.055" style="fill:#00ff28;fill-opacity:0.176471;"/><rect id="F23" x="193.014" y="702.04" width="13.626" height="15.055" style="fill:#00ff28;fill-opacity:0.176471;"/><rect id="D24" x="163.494" y="723.64" width="13.237" height="15.055" style="fill:#00ff28;fill-opacity:0.176471;"/><rect id="E24" x="177.894" y="723.64" width="13.626" height="15.055" style="fill:#00ff28;fill-opacity:0.176471;"/><rect id="F24" x="193.014" y="723.64" width="13.626" height="15.055" style="fill:#00ff28;fill-opacity:0.176471;"/><rect id="D25" x="163.494" y="745.24" width="13.237" height="15.055" style="fill:#00ff28;fill-opacity:0.176471;"/><rect id="E25" x="177.894" y="745.24" width="13.626" height="15.055" style="fill:#00ff28;fill-opacity:0.176471;"/><rect id="F25" x="193.014" y="745.24" width="13.626" height="15.055" style="fill:#00ff28;fill-opacity:0.176471;"/><rect id="D26" x="163.494" y="766.84" width="13.237" height="15.055" style="fill:#00ff28;fill-opacity:0.176471;"/><rect id="E26" x="177.894" y="766.84" width="13.626" height="15.055" style="fill:#00ff28;fill-opacity:0.176471;"/><rect id="F26" x="193.014" y="766.84" width="13.626" height="15.055" style="fill:#00ff28;fill-opacity:0.176471;"/><rect id="D27" x="163.494" y="788.44" width="13.237" height="15.055" style="fill:#00ff28;fill-opacity:0.176471;"/><rect id="E27" x="177.894" y="788.44" width="13.626" height="15.055" style="fill:#00ff28;fill-opacity:0.176471;"/><rect id="F27" x="193.014" y="788.44" width="13.626" height="15.055" style="fill:#00ff28;fill-opacity:0.176471;"/><rect id="D28" x="163.494" y="810.04" width="13.237" height="15.055" style="fill:#00ff28;fill-opacity:0.176471;"/><rect id="E28" x="177.894" y="810.04" width="13.626" height="15.055" style="fill:#00ff28;fill-opacity:0.176471;"/><rect id="F28" x="193.014" y="810.04" width="13.626" height="15.055" style="fill:#00ff28;fill-opacity:0.176471;"/><rect id="D29" x="163.494" y="831.64" width="13.237" height="15.055" style="fill:#00ff28;fill-opacity:0.176471;"/><rect id="E29" x="177.894" y="831.64" width="13.626" height="15.055" style="fill:#00ff28;fill-opacity:0.176471;"/><rect id="F29" x="193.014" y="831.64" width="13.626" height="15.055" style="fill:#00ff28;fill-opacity:0.176471;"/></svg>